<?xml version="1.0" standalone="no"?>
<!DOCTYPE svg PUBLIC "-//W3C//DTD SVG 20010904//EN" "http://www.w3.org/TR/2001/REC-SVG-20010904/DTD/svg10.dtd">
<svg
  version="1.0"
  xmlns="http://www.w3.org/2000/svg"
  width="500.000000pt"
  height="500.000000pt"
  viewBox="0 0 500.000000 500.000000"
  preserveAspectRatio="xMidYMid meet"
>
  <metadata>
    Created by potrace 1.14, written by Peter Selinger 2001-2017
  </metadata>
  <g
    transform="translate(0.000000,500.000000) scale(0.100000,-0.100000)"
    fill="#000000"
    stroke="none"
  >
    <path
      d="M1281 3859 c-10 -4 -55 -51 -102 -106 -46 -54 -86 -100 -89 -103 -3
-3 -43 -50 -90 -105 -89 -104 -108 -127 -159 -185 -42 -48 -45 -83 -8 -112 21
-16 123 -18 1660 -18 1136 0 1644 3 1658 11 31 16 43 57 25 84 -13 19 -131
161 -146 175 -3 3 -57 66 -119 140 -63 74 -122 142 -130 151 -9 9 -26 28 -38
43 -13 14 -29 27 -35 27 -51 5 -2413 3 -2427 -2z"
    />
    <path
      d="M1683 2798 c-28 -32 -304 -516 -309 -543 -4 -22 27 -65 49 -66 7 0
492 0 1078 -1 781 0 1072 3 1087 11 12 6 24 22 28 36 6 26 -9 57 -141 285
-111 190 -124 213 -131 230 -4 8 -18 27 -32 43 l-26 27 -791 0 -792 0 -20 -22z"
    />
    <path
      d="M2140 1768 c-25 -9 -24 -7 -133 -288 -120 -308 -113 -284 -84 -314
l24 -24 544 0 c579 0 579 0 594 48 4 12 -11 64 -40 137 -25 65 -71 183 -102
263 -31 80 -64 154 -75 165 -17 19 -32 20 -363 20 -190 0 -354 -3 -365 -7z"
    />
  </g>
</svg>
