<svg
  width="1500"
  height="241"
  viewBox="0 0 1500 241"
  fill="none"
  xmlns="http://www.w3.org/2000/svg"
>
  <path
    d="M282.19 46.497L245.922 2.97236C244.826 1.66194 243.182 0.881927 241.409 0.881927H42.0784C40.3375 0.881927 38.6611 1.66194 37.565 2.97236L1.29669 46.497C-1.76597 50.1475 0.942063 55.6076 5.81007 55.6076H277.677C282.545 55.6076 285.221 50.1475 282.19 46.497Z"
    fill="#1D2035"
  />
  <path
    d="M210.979 94.0904C209.98 92.2808 208.013 91.1576 205.886 91.1576H77.5443C75.4165 91.1576 73.45 92.2808 72.4506 94.0904L48.2717 137.615C46.2085 141.359 48.981 145.852 53.3654 145.852H230.097C234.481 145.852 237.254 141.328 235.19 137.615L211.012 94.0904H210.979Z"
    fill="#1D2035"
  />
  <path
    d="M174.458 185.018C173.652 182.865 171.524 181.43 169.139 181.43H114.301C111.915 181.43 109.788 182.865 108.982 185.018L92.4112 228.792C91.0572 232.38 93.7974 236.155 97.7305 236.155H185.742C189.675 236.155 192.415 232.38 191.061 228.792L174.49 185.018H174.458Z"
    fill="#1D2035"
  />
  <path
    d="M470.156 235.685V45.7935H392.306V0.55304H593.135V45.7935H515.286V235.685H470.156Z"
    fill="#1D2035"
  />
  <path
    d="M637.273 240.447C590.986 240.447 558.585 206.219 558.585 158.002C558.585 110.083 590.986 76.1523 637.273 76.1523C677.195 76.1523 707.86 107.702 707.86 157.109V171.395H602.268C604.293 191.337 615.286 204.433 637.562 204.433C652.605 204.433 662.441 196.099 664.177 185.384H706.992C702.364 219.017 674.013 240.447 637.273 240.447ZM602.557 144.311H664.755C663.888 127.048 653.762 114.25 635.537 114.25C615.286 114.25 605.161 126.453 602.557 144.311Z"
    fill="#1D2035"
  />
  <path
    d="M734.59 235.685V80.9144H777.406V103.237C787.531 86.5695 804.31 76.1523 828.321 76.1523C852.333 76.1523 868.244 85.9742 876.633 105.618C891.387 84.486 911.927 76.1523 935.071 76.1523C972.679 76.1523 991.194 100.856 991.194 148.18V235.685H947.51V150.561C947.51 127.941 936.517 114.25 918.002 114.25C897.173 114.25 884.155 130.917 884.155 156.514V235.685H840.761V150.561C840.761 127.941 829.768 114.25 811.253 114.25C790.424 114.25 777.406 130.917 777.406 156.514V235.685H734.59Z"
    fill="#1D2035"
  />
  <path
    d="M1094.39 240.447C1048.1 240.447 1015.7 206.219 1015.7 158.002C1015.7 110.083 1048.1 76.1523 1094.39 76.1523C1134.31 76.1523 1164.98 107.702 1164.98 157.109V171.395H1059.39C1061.41 191.337 1072.4 204.433 1094.68 204.433C1109.72 204.433 1119.56 196.099 1121.29 185.384H1164.11C1159.48 219.017 1131.13 240.447 1094.39 240.447ZM1059.67 144.311H1121.87C1121 127.048 1110.88 114.25 1092.65 114.25C1072.4 114.25 1062.28 126.453 1059.67 144.311Z"
    fill="#1D2035"
  />
  <path d="M1191.71 235.685V0.55304H1234.52V235.685H1191.71Z" fill="#1D2035" />
  <path
    d="M1290.02 61.8658C1274.11 61.8658 1262.53 49.9604 1262.53 33.8881C1262.53 17.8158 1274.11 6.50573 1290.02 6.50573C1305.64 6.50573 1317.21 17.8158 1317.21 33.8881C1317.21 49.9604 1305.64 61.8658 1290.02 61.8658ZM1268.32 235.685V80.9144H1311.42V235.685H1268.32Z"
    fill="#1D2035"
  />
  <path
    d="M1419.58 240.447C1372.42 240.447 1339.44 206.219 1339.44 158.002C1339.44 110.083 1372.42 76.1523 1419.58 76.1523C1466.73 76.1523 1500 110.083 1500 158.002C1500 206.219 1466.73 240.447 1419.58 240.447ZM1419.58 202.349C1441.56 202.349 1456.89 183.896 1456.89 158.002C1456.89 132.405 1441.56 114.25 1419.58 114.25C1397.88 114.25 1382.55 132.405 1382.55 158.002C1382.55 183.896 1397.88 202.349 1419.58 202.349Z"
    fill="#1D2035"
  />
</svg>
