<svg
  width="405"
  height="476"
  viewBox="0 0 405 476"
  fill="none"
  xmlns="http://www.w3.org/2000/svg"
>
  <path
    d="M404.801 316.981C404.712 305.245 404.015 293.522 402.712 281.859C400.973 267.106 397.505 252.61 392.381 238.669C397.504 224.737 400.971 210.248 402.712 195.503C404.015 183.84 404.713 172.117 404.801 160.382C404.991 141.506 404.905 104.852 404.853 82.9863L404.825 67.9505C404.825 54.5047 403.082 44.3527 399.188 35.055C395.342 25.8285 389.672 18.3533 382.335 12.8335C375.229 7.47513 366.523 3.88231 356.524 2.16421C348.995 0.916801 341.388 0.195266 333.759 0.00475078H333.371H332.992C325.364 0.195697 317.759 0.91563 310.231 2.15946C300.223 3.88231 291.54 7.47514 284.416 12.8383C277.079 18.3533 271.409 25.8285 267.567 35.036C263.631 44.4286 262.096 52.9242 262.096 65.3258C262.096 65.3258 262.096 101.302 262.096 115.787C258.695 114.79 255.299 113.784 251.893 112.996C236.27 109.326 220.288 107.4 204.241 107.253H200.627C184.623 107.403 168.685 109.327 153.103 112.991C149.697 113.779 146.301 114.785 142.905 115.782C142.933 92.4738 142.867 76.261 142.701 67.9457C142.701 54.5853 140.911 43.8116 137.23 35.0407C133.375 25.8142 127.7 18.339 120.358 12.824C113.229 7.46563 104.532 3.87756 94.5235 2.15471C86.9846 0.909291 79.3685 0.189353 71.7301 0H71.3513H70.9723C63.3356 0.191014 55.7212 0.910941 48.1836 2.15471C38.1748 3.87756 29.4781 7.46563 22.3445 12.824C15.0025 18.339 9.32792 25.819 5.48166 35.0265C1.84382 43.6929 0.00118016 54.7657 0.00118016 67.9457V73.7408C0.00118016 92.2223 -0.0272821 138.521 0.195346 160.372C0.282744 172.107 0.978478 183.83 2.2796 195.494C4.0206 210.246 7.4881 224.743 12.6105 238.683C7.4876 252.624 4.02008 267.12 2.2796 281.873C0.978452 293.536 0.282719 305.259 0.195346 316.995C-0.0557028 341.608 -0.0651763 381.656 0.195346 408.163H0.223795C0.223795 421.453 2.02379 432.207 5.69479 440.955C9.54579 450.181 15.2251 457.656 22.5671 463.176C29.7007 468.534 38.3927 472.118 48.4015 473.841C55.9401 475.089 63.5564 475.809 71.1949 475.995H71.5786H71.9575C79.5929 475.809 87.206 475.089 94.7414 473.841C104.755 472.118 113.452 468.53 120.581 463.176C127.923 457.656 133.602 450.181 137.443 440.973C141.133 432.188 142.924 421.419 142.924 408.049C142.924 408.049 142.924 380.716 142.924 361.59C146.325 362.586 149.726 363.592 153.136 364.38C168.758 368.045 184.736 369.971 200.779 370.123H204.402C220.405 369.973 236.342 368.046 251.922 364.38C255.328 363.592 258.733 362.586 262.134 361.594C262.134 380.721 262.134 408.049 262.134 408.054H262.191C262.191 421.419 263.986 432.193 267.662 440.959C271.518 450.186 277.197 457.661 284.534 463.181C291.668 468.539 300.36 472.122 310.374 473.845C317.911 475.093 325.525 475.813 333.162 476H333.546H333.93C341.563 475.811 349.175 475.091 356.709 473.845C366.727 472.122 375.414 468.539 382.548 463.181C389.89 457.661 395.569 450.186 399.415 440.973C403.101 432.193 404.891 421.419 404.891 408.054V405.525C405.057 378.979 405.038 340.749 404.801 316.981ZM287.722 65.3117C287.722 55.2214 288.997 50.2047 291.199 44.9364C293.298 39.915 296.111 36.1229 299.801 33.3464C303.643 30.4607 308.607 28.4721 314.566 27.4517C320.786 26.4289 327.069 25.8311 333.371 25.6624C339.675 25.8309 345.961 26.4287 352.185 27.4517C358.144 28.4721 363.108 30.4607 366.95 33.3464C370.635 36.1229 373.449 39.915 375.556 44.9554C378.072 50.9735 379.199 58.0596 379.199 67.9315L379.227 83.029C379.28 104.795 379.365 141.312 379.175 160.106C379.096 170.955 378.456 181.792 377.257 192.575C376.84 196.22 376.294 199.858 375.618 203.491C375.277 202.921 374.879 202.39 374.528 201.83C372.561 198.666 370.509 195.562 368.371 192.518C367.897 191.811 367.423 191.094 366.898 190.382C364.349 186.835 361.686 183.38 358.907 180.016C358.253 179.224 357.576 178.45 356.908 177.643C354.536 174.859 352.095 172.138 349.585 169.48C348.922 168.782 348.282 168.056 347.614 167.387C344.576 164.267 341.441 161.252 338.207 158.341C337.501 157.705 336.786 157.097 336.052 156.471C333.295 154.06 330.477 151.728 327.597 149.475C326.787 148.839 325.996 148.193 325.176 147.577C321.702 144.941 318.147 142.421 314.509 140.016C313.794 139.541 313.064 139.109 312.344 138.649C309.218 136.64 306.03 134.724 302.781 132.901C301.833 132.375 300.924 131.843 299.986 131.335C296.121 129.237 292.194 127.249 288.187 125.412C288.021 125.336 287.864 125.246 287.713 125.165V118.416C287.699 106.451 287.722 65.3164 287.722 65.3117ZM113.788 431.026C111.685 436.047 108.866 439.839 105.177 442.616C101.33 445.506 96.3567 447.495 90.3836 448.52C84.1536 449.543 77.8612 450.139 71.5502 450.304C65.2358 450.141 58.94 449.543 52.7073 448.515C46.7389 447.495 41.7606 445.506 37.9143 442.616C34.2244 439.839 31.406 436.047 29.2982 431.007C26.9914 425.506 25.8213 417.779 25.8213 408.035H12.9799L25.7929 407.926C25.5561 381.552 25.5655 341.717 25.7929 317.232C25.8711 306.383 26.513 295.546 27.7161 284.764C28.1329 281.119 28.6776 277.48 29.3502 273.848C29.696 274.417 30.0987 274.949 30.4492 275.518C32.4102 278.682 34.4533 281.785 36.5785 284.825C37.0522 285.533 37.5259 286.249 38.047 286.952C40.6048 290.508 43.2732 293.97 46.0521 297.336C46.6963 298.119 47.3595 298.874 48.0132 299.643C50.3974 302.453 52.8541 305.194 55.3835 307.868C56.0325 308.551 56.6625 309.249 57.3209 309.928C60.3651 313.051 63.5087 316.072 66.7518 318.993C67.4433 319.615 68.1729 320.208 68.8645 320.825C71.6371 323.249 74.4791 325.598 77.3907 327.873C78.1864 328.49 78.968 329.126 79.7591 329.733C83.2327 332.372 86.7978 334.904 90.4546 337.327C91.1557 337.802 91.8756 338.215 92.5814 338.67C95.7235 340.683 98.9208 342.605 102.173 344.437C103.121 344.959 104.03 345.495 104.963 346.003C108.824 348.096 112.746 350.085 116.753 351.917C116.924 351.998 117.08 352.088 117.251 352.168C117.251 369.886 117.251 408.049 117.251 408.045C117.27 417.779 116.1 425.511 113.788 431.026ZM246.129 339.325C232.413 342.56 218.383 344.265 204.294 344.409H200.817C186.688 344.267 172.618 342.563 158.863 339.325C150.675 337.416 142.646 334.877 134.848 331.732C112.966 322.918 93.1206 309.701 76.538 292.899C59.8762 276.068 46.8074 256.015 38.1275 233.961C32.8779 220.675 29.3842 206.759 27.735 192.565C26.5319 181.782 25.8899 170.943 25.8119 160.092C25.594 138.303 25.613 92.1463 25.6224 73.7123V67.9078C25.6224 58.3016 26.8255 50.347 29.1086 44.9222C31.207 39.896 34.0208 36.1039 37.7154 33.3274C41.5664 30.437 46.54 28.4531 52.5131 27.4279C58.7433 26.405 65.0355 25.8072 71.3465 25.6386C77.6606 25.8079 83.9559 26.4057 90.1893 27.4279C96.1577 28.4531 101.131 30.437 104.978 33.3274C108.672 36.1039 111.491 39.896 113.594 44.9364C115.905 50.4356 117.066 58.1766 117.075 68.1593C117.246 76.8922 117.312 93.8502 117.27 118.563V124.942V133.647C117.27 143.053 117.364 153.727 117.743 164.705C117.866 168.365 118.023 172.052 118.217 175.74C118.343 178.142 118.567 180.515 118.889 182.859C122.399 208.574 137.33 229.993 159.185 242.063C167.406 246.579 176.319 249.695 185.56 251.284L187.762 251.669L188.297 251.574C191.314 252.047 194.353 252.364 197.402 252.523C198.699 252.575 200.04 252.661 201.409 252.779L202.498 252.874L203.583 252.779C204.952 252.661 206.292 252.575 207.581 252.528C210.618 252.399 213.647 252.117 216.656 251.683C218.144 251.987 219.574 252.409 221.014 252.817C222.454 253.226 223.899 253.567 225.277 254.07C226.869 254.659 228.356 255.404 229.863 256.121C231.156 256.728 232.492 257.274 233.718 257.967C235.139 258.793 236.485 259.771 237.835 260.706C238.972 261.493 240.165 262.22 241.236 263.079C242.519 264.123 243.651 265.319 244.831 266.472C245.778 267.421 246.83 268.29 247.72 269.32C248.833 270.582 249.767 271.987 250.752 273.354C251.519 274.412 252.377 275.409 253.063 276.524C254.011 278.029 254.712 279.662 255.493 281.271C256.043 282.395 256.692 283.449 257.165 284.593C257.873 286.477 258.476 288.399 258.97 290.35C259.264 291.385 259.681 292.358 259.917 293.416C260.61 296.524 261.041 299.685 261.206 302.866C261.466 307.768 261.637 312.695 261.765 317.579C261.798 318.703 261.826 319.828 261.855 320.944C261.959 325.6 262.03 330.208 262.063 334.593C262.061 334.638 262.061 334.682 262.063 334.726C256.835 336.534 251.516 338.069 246.129 339.325ZM379.199 407.907L379.175 411.415C378.929 419.573 377.778 426.151 375.741 431.007C373.643 436.028 370.824 439.82 367.134 442.597C363.288 445.487 358.31 447.476 352.341 448.501C346.11 449.524 339.816 450.12 333.503 450.285C327.189 450.121 320.893 449.523 314.66 448.496C308.692 447.476 303.718 445.487 299.872 442.601C296.178 439.82 293.359 436.028 291.251 430.988C288.945 425.492 287.774 417.76 287.774 408.016H287.718C287.718 407.651 287.718 370.047 287.718 352.354V343.644C287.718 331.081 287.557 316.25 286.77 301.551C284.743 263.074 257.682 232.732 219.432 226.016L217.23 225.622L216.685 225.722C213.664 225.245 210.621 224.928 207.567 224.773C206.269 224.72 204.933 224.64 203.583 224.521L202.489 224.431L201.395 224.521C200.035 224.64 198.695 224.72 197.406 224.773C194.367 224.899 191.336 225.181 188.326 225.617C186.839 225.309 185.413 224.886 183.977 224.483C182.542 224.08 181.088 223.733 179.714 223.23C178.113 222.641 176.621 221.887 175.105 221.175C173.822 220.567 172.496 220.026 171.278 219.333C169.815 218.503 168.484 217.516 167.119 216.566C165.992 215.788 164.813 215.071 163.761 214.193C162.449 213.135 161.298 211.92 160.099 210.748C159.152 209.822 158.148 208.963 157.257 207.971C156.125 206.685 155.168 205.247 154.16 203.852C153.416 202.817 152.582 201.853 151.91 200.762C150.998 199.186 150.167 197.566 149.418 195.906C148.892 194.824 148.267 193.809 147.808 192.689C147.086 190.767 146.471 188.807 145.965 186.818C145.685 185.821 145.283 184.881 145.06 183.861C144.369 180.752 143.936 177.592 143.767 174.411C143.507 169.504 143.341 164.582 143.208 159.698C143.18 158.546 143.151 157.398 143.123 156.252C143.019 151.639 142.948 147.073 142.91 142.726V142.536C148.137 140.742 153.452 139.216 158.835 137.966C172.549 134.735 186.578 133.03 200.665 132.882H204.147C218.275 133.024 232.345 134.729 246.1 137.966C254.287 139.878 262.316 142.417 270.116 145.559C272.863 146.664 275.577 147.838 278.258 149.081C318.755 167.966 350.465 201.716 366.836 243.358C372.077 256.643 375.569 270.556 377.224 284.745C378.423 295.529 379.063 306.368 379.142 317.218C379.422 341.646 379.422 381.481 379.199 407.926V407.907Z"
    fill="#4104EE"
  />
</svg>
